<svg xmlns="http://www.w3.org/2000/svg" xmlns:xlink="http://www.w3.org/1999/xlink" width="500" zoomAndPan="magnify" viewBox="0 0 375 374.999991" height="500" preserveAspectRatio="xMidYMid meet" version="1.0"><defs><g/></defs><g fill="#ffffff" fill-opacity="0.302"><g transform="translate(6.186514, 243.854968)"><g><path d="M 89.4375 -109.375 L 127.796875 -109.375 L 127.796875 11.171875 C 127.796875 29.296875 117.054688 38.359375 95.578125 38.359375 L 40.984375 38.359375 C 19.503906 38.359375 8.765625 29.296875 8.765625 11.171875 L 8.765625 -43.84375 C 8.765625 -61.957031 19.503906 -71.015625 40.984375 -71.015625 L 56.328125 -71.015625 L 56.328125 -43.625 L 52.609375 -43.625 C 48.953125 -43.625 47.125 -42.015625 47.125 -38.796875 L 47.125 6.140625 C 47.125 9.347656 48.953125 10.953125 52.609375 10.953125 L 83.953125 10.953125 C 87.609375 10.953125 89.4375 9.347656 89.4375 6.140625 Z M 56.328125 -83.078125 L 17.75 -83.078125 L 17.75 -109.375 L 56.328125 -109.375 Z M 56.328125 -83.078125 "/></g></g></g><g fill="#ffffff" fill-opacity="0.302"><g transform="translate(142.957987, 243.854968)"><g><path d="M 59.625 -27.40625 C 61.375 -27.40625 62.539062 -26.304688 63.125 -24.109375 C 63.707031 -21.921875 64 -18.414062 64 -13.59375 C 64 -8.769531 63.742188 -5.296875 63.234375 -3.171875 C 62.722656 -1.054688 61.519531 0 59.625 0 L 40.984375 0 C 19.503906 0 8.765625 -9.0625 8.765625 -27.1875 L 8.765625 -146.640625 L 47.125 -146.640625 L 47.125 -32.21875 C 47.125 -29.007812 48.953125 -27.40625 52.609375 -27.40625 Z M 59.625 -27.40625 "/></g></g></g><g fill="#ffffff" fill-opacity="0.302"><g transform="translate(202.795523, 243.854968)"><g><path d="M 75.84375 -109.375 C 97.320312 -109.375 108.0625 -100.316406 108.0625 -82.203125 L 108.0625 -27.1875 C 108.0625 -9.0625 97.320312 0 75.84375 0 L 49.984375 0 C 46.035156 0 43.109375 -0.875 41.203125 -2.625 C 39.304688 -4.382812 38.140625 -6.941406 37.703125 -10.296875 L 36.609375 -10.296875 C 36.171875 -6.941406 35 -4.382812 33.09375 -2.625 C 31.195312 -0.875 28.273438 0 24.328125 0 L 0 0 C -1.894531 0 -3.097656 -1.054688 -3.609375 -3.171875 C -4.128906 -5.296875 -4.390625 -8.769531 -4.390625 -13.59375 C -4.390625 -18.414062 -4.09375 -21.921875 -3.5 -24.109375 C -2.914062 -26.304688 -1.75 -27.40625 0 -27.40625 L 12.9375 -27.40625 C 14.832031 -27.40625 16.144531 -27.84375 16.875 -28.71875 C 17.601562 -29.59375 17.96875 -30.90625 17.96875 -32.65625 L 17.96875 -82.203125 C 17.96875 -100.316406 28.710938 -109.375 50.203125 -109.375 Z M 69.703125 -77.15625 C 69.703125 -80.375 67.875 -81.984375 64.21875 -81.984375 L 61.8125 -81.984375 C 58.15625 -81.984375 56.328125 -80.375 56.328125 -77.15625 L 56.328125 -32.65625 C 56.328125 -30.90625 56.691406 -29.59375 57.421875 -28.71875 C 58.160156 -27.84375 59.476562 -27.40625 61.375 -27.40625 L 64.21875 -27.40625 C 67.875 -27.40625 69.703125 -29.007812 69.703125 -32.21875 Z M 69.703125 -77.15625 "/></g></g></g><g fill="#ffffff" fill-opacity="0.302"><g transform="translate(319.840338, 243.854968)"><g><path d="M 47.125 0 L 8.765625 0 L 8.765625 -146.640625 L 47.125 -146.640625 Z M 41.640625 -186.546875 C 38.867188 -186.546875 37.484375 -185.304688 37.484375 -182.828125 L 37.484375 -180.40625 L 48 -180.40625 L 48 -158.921875 L 7.890625 -158.921875 L 7.890625 -186.765625 C 7.890625 -200.941406 16.21875 -208.03125 32.875 -208.03125 L 48 -208.03125 L 48 -186.546875 Z M 41.640625 -186.546875 "/></g></g></g><g fill="#ffffff" fill-opacity="0.502"><g transform="translate(4.442677, 242.111134)"><g><path d="M 89.4375 -109.375 L 127.796875 -109.375 L 127.796875 11.171875 C 127.796875 29.296875 117.054688 38.359375 95.578125 38.359375 L 40.984375 38.359375 C 19.503906 38.359375 8.765625 29.296875 8.765625 11.171875 L 8.765625 -43.84375 C 8.765625 -61.957031 19.503906 -71.015625 40.984375 -71.015625 L 56.328125 -71.015625 L 56.328125 -43.625 L 52.609375 -43.625 C 48.953125 -43.625 47.125 -42.015625 47.125 -38.796875 L 47.125 6.140625 C 47.125 9.347656 48.953125 10.953125 52.609375 10.953125 L 83.953125 10.953125 C 87.609375 10.953125 89.4375 9.347656 89.4375 6.140625 Z M 56.328125 -83.078125 L 17.75 -83.078125 L 17.75 -109.375 L 56.328125 -109.375 Z M 56.328125 -83.078125 "/></g></g></g><g fill="#ffffff" fill-opacity="0.502"><g transform="translate(141.21415, 242.111134)"><g><path d="M 59.625 -27.40625 C 61.375 -27.40625 62.539062 -26.304688 63.125 -24.109375 C 63.707031 -21.921875 64 -18.414062 64 -13.59375 C 64 -8.769531 63.742188 -5.296875 63.234375 -3.171875 C 62.722656 -1.054688 61.519531 0 59.625 0 L 40.984375 0 C 19.503906 0 8.765625 -9.0625 8.765625 -27.1875 L 8.765625 -146.640625 L 47.125 -146.640625 L 47.125 -32.21875 C 47.125 -29.007812 48.953125 -27.40625 52.609375 -27.40625 Z M 59.625 -27.40625 "/></g></g></g><g fill="#ffffff" fill-opacity="0.502"><g transform="translate(201.051686, 242.111134)"><g><path d="M 75.84375 -109.375 C 97.320312 -109.375 108.0625 -100.316406 108.0625 -82.203125 L 108.0625 -27.1875 C 108.0625 -9.0625 97.320312 0 75.84375 0 L 49.984375 0 C 46.035156 0 43.109375 -0.875 41.203125 -2.625 C 39.304688 -4.382812 38.140625 -6.941406 37.703125 -10.296875 L 36.609375 -10.296875 C 36.171875 -6.941406 35 -4.382812 33.09375 -2.625 C 31.195312 -0.875 28.273438 0 24.328125 0 L 0 0 C -1.894531 0 -3.097656 -1.054688 -3.609375 -3.171875 C -4.128906 -5.296875 -4.390625 -8.769531 -4.390625 -13.59375 C -4.390625 -18.414062 -4.09375 -21.921875 -3.5 -24.109375 C -2.914062 -26.304688 -1.75 -27.40625 0 -27.40625 L 12.9375 -27.40625 C 14.832031 -27.40625 16.144531 -27.84375 16.875 -28.71875 C 17.601562 -29.59375 17.96875 -30.90625 17.96875 -32.65625 L 17.96875 -82.203125 C 17.96875 -100.316406 28.710938 -109.375 50.203125 -109.375 Z M 69.703125 -77.15625 C 69.703125 -80.375 67.875 -81.984375 64.21875 -81.984375 L 61.8125 -81.984375 C 58.15625 -81.984375 56.328125 -80.375 56.328125 -77.15625 L 56.328125 -32.65625 C 56.328125 -30.90625 56.691406 -29.59375 57.421875 -28.71875 C 58.160156 -27.84375 59.476562 -27.40625 61.375 -27.40625 L 64.21875 -27.40625 C 67.875 -27.40625 69.703125 -29.007812 69.703125 -32.21875 Z M 69.703125 -77.15625 "/></g></g></g><g fill="#ffffff" fill-opacity="0.502"><g transform="translate(318.096501, 242.111134)"><g><path d="M 47.125 0 L 8.765625 0 L 8.765625 -146.640625 L 47.125 -146.640625 Z M 41.640625 -186.546875 C 38.867188 -186.546875 37.484375 -185.304688 37.484375 -182.828125 L 37.484375 -180.40625 L 48 -180.40625 L 48 -158.921875 L 7.890625 -158.921875 L 7.890625 -186.765625 C 7.890625 -200.941406 16.21875 -208.03125 32.875 -208.03125 L 48 -208.03125 L 48 -186.546875 Z M 41.640625 -186.546875 "/></g></g></g><g fill="#5e17eb" fill-opacity="1"><g transform="translate(2.698841, 240.367296)"><g><path d="M 89.4375 -109.375 L 127.796875 -109.375 L 127.796875 11.171875 C 127.796875 29.296875 117.054688 38.359375 95.578125 38.359375 L 40.984375 38.359375 C 19.503906 38.359375 8.765625 29.296875 8.765625 11.171875 L 8.765625 -43.84375 C 8.765625 -61.957031 19.503906 -71.015625 40.984375 -71.015625 L 56.328125 -71.015625 L 56.328125 -43.625 L 52.609375 -43.625 C 48.953125 -43.625 47.125 -42.015625 47.125 -38.796875 L 47.125 6.140625 C 47.125 9.347656 48.953125 10.953125 52.609375 10.953125 L 83.953125 10.953125 C 87.609375 10.953125 89.4375 9.347656 89.4375 6.140625 Z M 56.328125 -83.078125 L 17.75 -83.078125 L 17.75 -109.375 L 56.328125 -109.375 Z M 56.328125 -83.078125 "/></g></g></g><g fill="#5e17eb" fill-opacity="1"><g transform="translate(139.470314, 240.367296)"><g><path d="M 59.625 -27.40625 C 61.375 -27.40625 62.539062 -26.304688 63.125 -24.109375 C 63.707031 -21.921875 64 -18.414062 64 -13.59375 C 64 -8.769531 63.742188 -5.296875 63.234375 -3.171875 C 62.722656 -1.054688 61.519531 0 59.625 0 L 40.984375 0 C 19.503906 0 8.765625 -9.0625 8.765625 -27.1875 L 8.765625 -146.640625 L 47.125 -146.640625 L 47.125 -32.21875 C 47.125 -29.007812 48.953125 -27.40625 52.609375 -27.40625 Z M 59.625 -27.40625 "/></g></g></g><g fill="#5e17eb" fill-opacity="1"><g transform="translate(199.307849, 240.367296)"><g><path d="M 75.84375 -109.375 C 97.320312 -109.375 108.0625 -100.316406 108.0625 -82.203125 L 108.0625 -27.1875 C 108.0625 -9.0625 97.320312 0 75.84375 0 L 49.984375 0 C 46.035156 0 43.109375 -0.875 41.203125 -2.625 C 39.304688 -4.382812 38.140625 -6.941406 37.703125 -10.296875 L 36.609375 -10.296875 C 36.171875 -6.941406 35 -4.382812 33.09375 -2.625 C 31.195312 -0.875 28.273438 0 24.328125 0 L 0 0 C -1.894531 0 -3.097656 -1.054688 -3.609375 -3.171875 C -4.128906 -5.296875 -4.390625 -8.769531 -4.390625 -13.59375 C -4.390625 -18.414062 -4.09375 -21.921875 -3.5 -24.109375 C -2.914062 -26.304688 -1.75 -27.40625 0 -27.40625 L 12.9375 -27.40625 C 14.832031 -27.40625 16.144531 -27.84375 16.875 -28.71875 C 17.601562 -29.59375 17.96875 -30.90625 17.96875 -32.65625 L 17.96875 -82.203125 C 17.96875 -100.316406 28.710938 -109.375 50.203125 -109.375 Z M 69.703125 -77.15625 C 69.703125 -80.375 67.875 -81.984375 64.21875 -81.984375 L 61.8125 -81.984375 C 58.15625 -81.984375 56.328125 -80.375 56.328125 -77.15625 L 56.328125 -32.65625 C 56.328125 -30.90625 56.691406 -29.59375 57.421875 -28.71875 C 58.160156 -27.84375 59.476562 -27.40625 61.375 -27.40625 L 64.21875 -27.40625 C 67.875 -27.40625 69.703125 -29.007812 69.703125 -32.21875 Z M 69.703125 -77.15625 "/></g></g></g><g fill="#5e17eb" fill-opacity="1"><g transform="translate(316.352665, 240.367296)"><g><path d="M 47.125 0 L 8.765625 0 L 8.765625 -146.640625 L 47.125 -146.640625 Z M 41.640625 -186.546875 C 38.867188 -186.546875 37.484375 -185.304688 37.484375 -182.828125 L 37.484375 -180.40625 L 48 -180.40625 L 48 -158.921875 L 7.890625 -158.921875 L 7.890625 -186.765625 C 7.890625 -200.941406 16.21875 -208.03125 32.875 -208.03125 L 48 -208.03125 L 48 -186.546875 Z M 41.640625 -186.546875 "/></g></g></g></svg>